<svg width="360" height="660" viewBox="0 0 360 660" xmlns="http://www.w3.org/2000/svg">
  <defs>
    <radialGradient id="fur" cx="42%" cy="34%" r="78%">
      <stop offset="0%" stop-color="#B4B4BC"/><stop offset="100%" stop-color="#80808A"/>
    </radialGradient>
    <linearGradient id="suit" x1="0" y1="0" x2="0" y2="1">
      <stop offset="0%" stop-color="#33405F"/><stop offset="100%" stop-color="#1E2740"/>
    </linearGradient>
  </defs>

  <!-- HEAD (matches the original translate/scale so it lands in place) -->
  <g transform="translate(0,3) scale(0.9)">
    <circle cx="152" cy="108" r="42" fill="url(#fur)"/><circle cx="152" cy="108" r="22" fill="#D99A9A"/>
    <circle cx="248" cy="108" r="42" fill="url(#fur)"/><circle cx="248" cy="108" r="22" fill="#D99A9A"/>
    <path d="M150 98 L250 98 Q286 134 278 180 L260 216 L226 250 L200 266 L174 250 L140 216 L122 180 Q114 134 150 98 Z" fill="url(#fur)"/>
    <path d="M168 220 L232 220 L206 252 L200 262 L194 252 Z" fill="#C7C7CF"/>
    <g stroke="#6E6E78" stroke-width="2.5" stroke-linecap="round" opacity="0.85" fill="none">
      <path d="M176 228 Q126 220 100 222"/><path d="M176 236 Q128 238 104 246"/>
      <path d="M224 228 Q274 220 300 222"/><path d="M224 236 Q272 238 296 246"/>
    </g>
    <path d="M190 248 L210 248 L200 262 Z" fill="#3A2E32"/>
    <path d="M188 250 Q200 259 212 250" fill="none" stroke="#5A4A4E" stroke-width="3" stroke-linecap="round"/>
    <rect x="194" y="251" width="5" height="11" rx="1.5" fill="#F7F7F4"/>
    <rect x="201" y="251" width="5" height="11" rx="1.5" fill="#F7F7F4"/>
    <path d="M146 158 C150 142 186 140 190 156 C186 172 150 174 146 158 Z" fill="#FFFFFF"/>
    <path d="M254 158 C250 142 214 140 210 156 C214 172 250 174 254 158 Z" fill="#FFFFFF"/>
    <circle cx="172" cy="158" r="11" fill="#2B2B33"/><circle cx="228" cy="158" r="11" fill="#2B2B33"/>
    <circle cx="175" cy="154" r="4" fill="#FFFFFF"/><circle cx="231" cy="154" r="4" fill="#FFFFFF"/>
    <g stroke="#6F6F79" stroke-width="6" stroke-linecap="round" fill="none">
      <path d="M142 138 L188 132"/><path d="M212 132 L258 138"/>
    </g>
    <path d="M128 122 C128 52 272 52 272 122 Z" fill="#222B45"/>
    <path d="M122 118 Q200 146 278 118 L278 130 Q200 158 122 130 Z" fill="#D9A227"/>
    <rect x="196" y="48" width="8" height="16" rx="3" fill="#D9A227"/><circle cx="200" cy="48" r="11" fill="#D9A227"/>
  </g>
</svg>
