<svg width="90" height="165" viewBox="0 0 360 660" xmlns="http://www.w3.org/2000/svg">
  <title>OshRat outfit hoodie-mustard: torso</title>
  
  <path d="M116 270 Q124 254 162 251 Q180 259 198 251 Q236 254 244 270 L250 388 Q250 440 180 452 Q110 440 102 388 Z" fill="#D9A227" stroke="#A3791C" stroke-width="2.5" stroke-linejoin="round"/><path d="M104 418 Q116 440 180 448 Q244 440 250 418" fill="none" stroke="#A3791C" stroke-width="7" stroke-linecap="round"/><path d="M144 396 L216 396 L226 438 L134 438 Z" fill="#C89523" stroke="#A3791C" stroke-width="2"/><path d="M150 257 Q180 289 210 257 L201 246 Q180 275 159 246 Z" fill="#A3791C"/><path d="M173 271 L171 315" stroke="#F4F4F2" stroke-width="2.5" stroke-linecap="round"/><rect x="168.5" y="313" width="5" height="8" rx="2" fill="#D9D9DE"/><path d="M187 271 L189 315" stroke="#F4F4F2" stroke-width="2.5" stroke-linecap="round"/><rect x="186.5" y="313" width="5" height="8" rx="2" fill="#D9D9DE"/>
</svg>
